<?xml version="1.0" encoding="utf-8"?>
<!DOCTYPE svg PUBLIC "-//W3C//DTD SVG 1.1//EN" "http://www.w3.org/Graphics/SVG/1.1/DTD/svg11.dtd">
<svg version="1.1" id="camera" xmlns="http://www.w3.org/2000/svg" xmlns:xlink="http://www.w3.org/1999/xlink" x="0px" y="0px" width="1025px" height="1024px" viewBox="0 0 1025 1024" enable-background="new 0 0 1025 1024" xml:space="preserve">
  <path fill="#ffffff" d="M530.304 336.576q0 8-5.152 13.152t-13.152 5.152q-37.728 0-64.576-26.848t-26.848-64.576q0-8 5.152-13.152t13.152-5.152 13.152 5.152 5.152 13.152q0 22.848 16 38.848t38.848 16q8 0 13.152 5.152t5.152 13.152zM658.304 262.272q0-60.576-42.848-103.424t-103.424-42.848-103.424 42.848-42.848 103.424 42.848 103.424 103.424 42.848 103.424-42.848 42.848-103.424zM73.184-65.728l877.728 0 0 73.152-877.728 0 0-73.152zM731.456 262.272q0 90.848-64.288 155.136t-155.136 64.288-155.136-64.288-64.288-155.136 64.288-155.136 155.136-64.288 155.136 64.288 64.288 155.136zM146.304 629.152l219.424 0 0 73.152-219.424 0 0-73.152zM73.184 519.424l877.728 0 0 146.272-473.152 0-36.576-73.152-368 0 0-73.152zM1024.032 665.728l0-731.424q0-30.272-21.44-51.712t-51.712-21.44l-877.728 0q-30.272 0-51.712 21.44t-21.44 51.712l0 731.424q0 30.272 21.44 51.712t51.712 21.44l877.728 0q30.272 0 51.712-21.44t21.44-51.712z" transform="translate(0, 812) scale(1, -1)"/>
</svg>