<?xml version="1.0" encoding="utf-8"?>
<!DOCTYPE svg PUBLIC "-//W3C//DTD SVG 1.1//EN" "http://www.w3.org/Graphics/SVG/1.1/DTD/svg11.dtd">
<svg version="1.1" id="comments" xmlns="http://www.w3.org/2000/svg" xmlns:xlink="http://www.w3.org/1999/xlink" x="0px" y="0px" width="1101px" height="1024px" viewBox="0 0 1101 1024" enable-background="new 0 0 1101 1024" xml:space="preserve">
  <path fill="#ffffff" d="M804.224 390.72c0 165.28-180.064 299.264-402.112 299.264s-402.112-133.984-402.112-299.264c0-99.328 65.024-187.328 165.12-241.76-0.288-0.864-79.744-145.44-79.744-145.44s242.624 92.544 243.296 92.928c23.808-3.296 48.352-4.96 73.44-4.96 222.048 0 402.112 133.984 402.112 299.232zM1100.32 297.216c0 165.248-169.504 298.048-352.992 299.232 263.04-262.016-46.752-541.184-299.232-541.184 0 0 28.064-57.28 250.112-57.28 25.056 0 49.632 1.728 73.44 4.992 0.672-0.448 243.328-92.928 243.328-92.928s-79.488 144.544-79.744 145.408c100.064 54.432 165.088 142.464 165.088 241.76z" transform="translate(0, 812) scale(1, -1)"/>
</svg>