<?xml version="1.0" encoding="utf-8"?>
<!DOCTYPE svg PUBLIC "-//W3C//DTD SVG 1.1//EN" "http://www.w3.org/Graphics/SVG/1.1/DTD/svg11.dtd">
<svg version="1.1" id="eyedropper" xmlns="http://www.w3.org/2000/svg" xmlns:xlink="http://www.w3.org/1999/xlink" x="0px" y="0px" width="1024px" height="1024px" viewBox="0 0 1024 1024" enable-background="new 0 0 1024 1024" xml:space="preserve">
  <path fill="#ffffff" d="M970.24384 758.207271q53.719591-53.719591 53.719591-129.417042t-53.719591-128.831941l-128.575959-127.405757 59.424327-59.424327q5.704735-5.704735 5.704735-13.128205t-5.704735-13.128205l-119.982287-119.982287q-5.704735-5.704735-13.128205-5.704735t-13.128205 5.704735l-60.009428 60.009428-344.551389-344.551389q-21.136776-21.136776-51.415756-21.136776l-115.996286 0-146.275266-73.137633-36.568817 36.568817 73.137633 146.275266 0 115.996286q0 30.27898 21.136776 51.415756l344.551389 344.551389-60.009428 60.009428q-5.704735 5.704735-5.704735 13.128205t5.704735 13.128205l119.982287 119.982287q5.704735 5.704735 13.128205 5.704735t13.128205-5.704735l59.424327-59.424327 127.405757 128.575959q53.13449 53.719591 128.831941 53.719591t129.417042-53.719591zM292.587101-29.155917l329.119349 329.119349-109.70645 109.70645-329.119349-329.119349 0-109.70645 109.70645 0z" transform="translate(0, 812) scale(1, -1)"/>
</svg>