<?xml version="1.0" encoding="utf-8"?>
<!DOCTYPE svg PUBLIC "-//W3C//DTD SVG 1.1//EN" "http://www.w3.org/Graphics/SVG/1.1/DTD/svg11.dtd">
<svg version="1.1" id="heartbeat" xmlns="http://www.w3.org/2000/svg" xmlns:xlink="http://www.w3.org/1999/xlink" x="0px" y="0px" width="1024px" height="1024px" viewBox="0 0 1024 1024" enable-background="new 0 0 1024 1024" xml:space="preserve">
  <path fill="#ffffff" d="M731.428571 226.857143l174.285714 0q-2.857143-3.428571-5.714286-6t-5.142857-4.285714l-1.714286-2.285714-356-342.857143q-10.285714-10.285714-25.142857-10.285714t-25.142857 10.285714l-356.571429 344q-2.857143 1.142857-12 11.428571l210.857143 0q12.571429 0 22.571429 7.714286t12.857143 19.714286l40 160.571429 108.571429-381.142857q3.428571-11.428571 13.142857-18.857143t22.285714-7.428571q12 0 21.714286 7.428571t13.142857 18.857143l83.428571 277.142857 32-64q10.285714-20 32.571429-20zm292.571429 244.571429q0-82.857143-58.857143-171.428571l-210.857143 0-63.428571 126.285714q-4.571429 9.714286-14.571429 15.428571t-20.857143 4.571429q-25.714286-2.857143-32-26.285714l-73.714286-245.714286-112 392q-3.428571 11.428571-13.428571 18.857143t-22.571429 7.428571-22.285714-7.714286-12.571429-19.714286l-66.285714-265.142857-241.714286 0q-58.857143 88.571429-58.857143 171.428571 0 125.714286 72.571429 196.571429t200.571429 70.857143q35.428571 0 72.285714-12.285714t68.571429-33.142857 54.571429-39.142857 43.428571-38.857143q20.571429 20.571429 43.428571 38.857143t54.571429 39.142857 68.571429 33.142857 72.285714 12.285714q128 0 200.571429-70.857143t72.571429-196.571429z" transform="translate(0, 812) scale(1, -1)"/>
</svg>