<?xml version="1.0" encoding="utf-8"?>
<!DOCTYPE svg PUBLIC "-//W3C//DTD SVG 1.1//EN" "http://www.w3.org/Graphics/SVG/1.1/DTD/svg11.dtd">
<svg version="1.1" id="wordpress" xmlns="http://www.w3.org/2000/svg" xmlns:xlink="http://www.w3.org/1999/xlink" x="0px" y="0px" width="1024px" height="1024px" viewBox="0 0 1024 1024" enable-background="new 0 0 1024 1024" xml:space="preserve">
  <path fill="#ffffff" d="M127.5 300q0 81.5 33.5 156.5l183.5-502.5q-98 47.5-157.5 140.5t-59.5 205.5zm644 19.5q0-9.5-1.25-19.25t-5-24.75-5.75-22-8.75-29.5-8.75-29l-38-128-139 413q23 1.5 44 4 9.5 1 13 9.25t-1.25 15.5-14.25 6.75l-102.5-5q-37.5 0.5-101 5-6 0.5-10.25-2.5t-5.75-7.5-0.75-9.25 4.5-8.25 9.75-4l40-4 60-164-84-252-140 416q23 1.5 44 4 9.5 1 13 9.25t-1.25 15.5-14.25 6.75l-102.5-5q-3.5 0-11.5-2.5t-13-2.5q52.5 80 137.25 126.75t183.75 46.75q73.5 0 140.25-26.5t119.25-74.5l-5 0q-27.5 0-46-20.25t-18.5-47.75q0-6 1-12t2-10.75 4-11.5 4.5-10.5 6-11.25 6.25-10.5 7.25-12 7-11.5q31.5-53.5 31.5-106zm-253-53l118.5-323.5q0.5-3 2.5-5.5-63-22-127.5-22-56 0-108.5 16zm330.5 218q47.5-87 47.5-184.5 0-104.5-52-192.75t-139.5-139.25l117.5 339q29.5 84.5 29.5 138 0 21-3 39.5zm-337 263.5q91 0 174-35.5t143-95.5 95.5-143 35.5-174-35.5-174-95.5-143-143-95.5-174-35.5-174 35.5-143 95.5-95.5 143-35.5 174 35.5 174 95.5 143 143 95.5 174 35.5zm0-875.5q86.5 0 165.75 34t136.5 91.25 91.25 136.5 34 165.75-34 165.75-91.25 136.5-136.5 91.25-165.75 34-165.75-34-136.5-91.25-91.25-136.5-34-165.75 34-165.75 91.25-136.5 136.5-91.25 165.75-34z" transform="translate(0, 812) scale(1, -1)"/>
</svg>